<?xml version="1.0" encoding="UTF-8" standalone="no"?>
<svg
   xmlns:dc="http://purl.org/dc/elements/1.1/"
   xmlns:cc="http://creativecommons.org/ns#"
   xmlns:rdf="http://www.w3.org/1999/02/22-rdf-syntax-ns#"
   xmlns:svg="http://www.w3.org/2000/svg"
   xmlns="http://www.w3.org/2000/svg"
   id="svg8"
   version="1.1"
   viewBox="0 0 279.4 38.1"
   height="1.5in"
   width="11in">
  <defs
     id="defs2" />
  <metadata
     id="metadata5">
    <rdf:RDF>
      <cc:Work
         rdf:about="">
        <dc:format>image/svg+xml</dc:format>
        <dc:type
           rdf:resource="http://purl.org/dc/dcmitype/StillImage" />
        <dc:title></dc:title>
      </cc:Work>
    </rdf:RDF>
  </metadata>
  <g
     transform="translate(0,-258.9)"
     id="layer1">
    <g
       style="fill:#000000;stroke:none"
       transform="matrix(0.00292456,0,0,-0.00315044,-0.30265427,298.17311)"
       id="g278">
      <path
         d="m 2393,8485 c -433,-49 -824,-168 -1213,-368 -121,-63 -298,-169 -331,-200 -40,-37 -12,-128 96,-312 260,-445 617,-827 918,-981 l 72,-36 215,111 c 250,128 373,181 566,244 277,90 481,123 713,114 342,-12 598,-120 822,-347 209,-212 358,-540 359,-788 0,-68 -3,-84 -17,-89 -9,-4 -177,8 -372,25 -687,61 -1015,77 -1426,69 -498,-11 -813,-57 -1075,-158 -108,-41 -144,-67 -148,-106 -7,-69 110,-328 227,-502 171,-255 472,-558 649,-654 l 49,-27 99,24 c 521,126 1071,185 1464,157 524,-38 899,-177 1162,-429 220,-211 328,-468 328,-777 0,-206 -43,-390 -135,-583 -175,-365 -449,-636 -830,-822 -346,-169 -681,-223 -1180,-190 -480,32 -892,135 -1260,315 -278,136 -482,282 -705,505 -275,275 -448,529 -725,1065 -115,223 -174,326 -208,362 -22,25 -66,30 -85,11 -15,-15 -15,-98 -1,-226 122,-1129 804,-2239 1774,-2887 516,-344 1051,-538 1710,-617 171,-20 678,-17 830,5 461,69 822,225 1145,495 510,427 821,1146 856,1977 14,350 -46,758 -151,1025 -19,48 -35,90 -35,93 0,3 36,31 81,62 172,121 311,279 400,458 74,146 124,307 169,543 23,115 54,277 70,359 72,373 165,583 342,769 146,155 343,278 523,326 120,33 311,38 435,12 258,-54 484,-183 690,-392 126,-128 215,-255 300,-425 107,-214 149,-363 171,-597 34,-351 -82,-788 -293,-1111 -315,-479 -864,-808 -1540,-922 -110,-18 -157,-30 -165,-42 -34,-45 4,-271 73,-433 133,-318 438,-644 830,-891 102,-65 307,-169 332,-169 8,0 71,16 141,36 481,137 893,375 1221,703 454,455 722,1051 796,1771 20,200 15,617 -11,800 -87,632 -285,1171 -610,1666 -450,682 -1096,1154 -1841,1345 -404,103 -720,110 -1019,24 -358,-103 -700,-346 -940,-667 -177,-235 -256,-428 -415,-1010 -50,-180 -106,-370 -125,-423 -97,-267 -202,-384 -346,-385 -67,0 -69,2 -69,103 0,110 -18,295 -45,471 -210,1355 -1152,2300 -2500,2507 -182,27 -625,35 -812,14 z m 493,2319 c -25,-25 -19,-54 33,-161 106,-216 265,-427 506,-669 655,-656 1503,-1063 2430,-1166 181,-20 673,-17 855,6 483,59 1038,217 1425,407 63,30 70,37 73,66 5,47 -60,229 -129,368 -132,263 -307,493 -590,778 -180,181 -210,207 -238,207 -23,0 -57,-20 -135,-77 -433,-322 -922,-518 -1456,-585 -135,-17 -561,-17 -700,0 -616,75 -1210,300 -1765,667 -77,51 -166,111 -199,134 -64,44 -86,50 -110,25 z m 2147,1612 c -412,-79 -723,-402 -784,-816 -32,-225 24,-480 148,-667 51,-78 174,-206 250,-259 130,-93 305,-158 469,-172 479,-44 900,254 1031,730 14,49 18,102 18,233 0,196 -14,263 -89,420 -52,109 -111,189 -208,281 -123,116 -233,179 -405,230 -109,32 -315,42 -430,20 z m 89820.813,-9346.559 -150.089,768.2155 h -36.35 q -372.957,-507.2233 -745.914,-689.4261 -368.398,-177.2761 -923.287,-177.2761 -741.355,0 -1164.339,413.6538 -418.442,413.6537 -418.442,1176.9425 0,1634.9273 2415.106,1713.7167 l 845.968,29.5413 v 334.8643 q 0,635.2609 -254.702,935.6478 -250.152,305.3231 -805.033,305.3231 -623.108,0 -1409.949,-413.6633 l -231.959,625.4074 q 368.407,216.6803 805.041,339.7911 441.176,123.1108 882.353,123.1108 891.453,0 1318.987,-428.4244 432.075,-428.4339 432.075,-1373.9256 V 3069.4315 Z m -1705.586,576.1593 q 704.979,0 1105.22,418.5805 404.791,418.5804 404.791,1172.0253 v 487.526 l -755.005,-34.4966 q -900.545,-34.4965 -1300.786,-305.3136 -395.7,-265.9189 -395.7,-832.2342 0,-443.2046 245.61,-674.6555 250.152,-231.451 695.87,-231.451 z M 90187.34,3069.441 h -755.006 v 5397.2155 h 755.006 z m -786.849,6234.3765 q 218.317,305.3231 468.469,738.6745 254.702,433.351 400.241,753.445 h 918.746 v -103.414 q -200.125,-320.094 -595.815,-787.9127 -395.7,-467.8286 -686.787,-723.9036 h -504.854 z M 87904.13,8565.1528 q 332.022,0 595.825,-59.0825 l -104.613,-758.3717 q -309.279,73.8532 -545.789,73.8532 -604.907,0 -1036.992,-531.8379 -427.534,-531.8474 -427.534,-1324.6869 V 3069.441 h -755.006 v 5397.2155 h 623.109 l 86.429,-999.6665 h 36.35 q 277.436,526.9207 668.585,812.537 391.15,285.6258 859.61,285.6258 z M 82509.945,2970.9543 q -1105.22,0 -1746.522,728.8208 -636.751,728.8208 -636.751,2023.957 0,1304.9801 591.275,2073.2051 595.816,768.2156 1596.423,768.2156 936.938,0 1482.719,-669.7288 545.789,-664.8021 545.789,-1758.0381 v -517.0672 h -3433.907 q 22.708,-950.4279 441.176,-1442.8711 422.984,-492.4527 1187.091,-492.4527 805.032,0 1591.872,364.4152 v -728.8208 q -400.241,-187.1295 -759.556,-265.9189 -354.755,-83.7638 -859.609,-83.7638 z m -204.667,4909.699 q -600.366,0 -959.681,-423.5072 -354.756,-423.5072 -418.433,-1172.0254 h 2606.131 q 0,773.1423 -318.38,1181.8693 -318.371,413.6633 -909.637,413.6633 z m -5289.59,674.646 q 982.414,0 1523.653,-728.8208 545.789,-723.8941 545.789,-2053.5078 0,-1329.6041 -550.339,-2068.2784 -545.78,-733.738 -1519.103,-733.738 -486.662,0 -891.453,192.0467 -400.242,196.983 -673.136,600.7929 h -54.568 l -159.19,-694.3529 h -541.239 v 7662.477 h 755.006 V 8870.4664 q 0,-625.4074 -36.35,-1122.7773 h 36.35 q 527.596,807.6102 1564.588,807.6102 z m -109.155,-684.4994 q -773.198,0 -1114.312,-482.5992 -341.122,-477.6726 -341.122,-1615.23 0,-1137.5479 350.214,-1630.0006 350.214,-487.5164 1123.413,-487.5164 695.878,0 1036.992,546.618 341.113,551.5352 341.113,1580.7524 0,1053.8414 -341.113,1570.9086 -341.114,517.0672 -1055.185,517.0672 z M 73372.564,5772.9707 q 0,-1319.7507 -614.008,-2063.3517 -614.008,-738.6647 -1696.485,-738.6647 -668.586,0 -1187.091,339.7816 -518.496,339.7911 -800.482,975.0519 -281.986,635.2513 -281.986,1487.1829 0,1319.7602 609.458,2053.5078 609.458,738.6743 1691.935,738.6743 1046.093,0 1660.101,-753.4449 618.558,-753.4449 618.558,-2038.7372 z m -3797.762,0 q 0,-1034.1344 382.049,-1575.8257 382.048,-541.6913 1123.412,-541.6913 741.364,0 1123.412,536.7646 386.6,541.6912 386.6,1580.7524 0,1029.2173 -386.6,1561.0646 -382.048,536.7646 -1132.513,536.7646 -741.354,0 -1118.862,-526.9207 -377.498,-526.9206 -377.498,-1570.9085 z M 64814.638,3069.441 v 7199.575 h 773.199 V 3827.8126 h 2933.602 V 3069.441 Z m -5579.762,0 -150.089,768.2155 h -36.35 q -372.957,-507.2233 -745.914,-689.4261 -368.406,-177.2761 -923.287,-177.2761 -741.364,0 -1164.348,413.6538 -418.433,413.6537 -418.433,1176.9425 0,1634.9273 2415.106,1713.7167 l 845.968,29.5413 v 334.8643 q 0,635.2609 -254.702,935.6478 -250.152,305.3231 -805.033,305.3231 -623.108,0 -1409.949,-413.6633 l -231.959,625.4074 q 368.407,216.6803 805.033,339.7911 441.185,123.1108 882.361,123.1108 891.444,0 1318.978,-428.4244 432.084,-428.4339 432.084,-1373.9256 V 3069.4315 Z m -1705.586,576.1593 q 704.979,0 1105.22,418.5805 404.792,418.5804 404.792,1172.0253 v 487.526 l -755.006,-34.4966 q -900.545,-34.4965 -1300.786,-305.3136 -395.7,-265.9189 -395.7,-832.2342 0,-443.2046 245.602,-674.6555 250.151,-231.451 695.878,-231.451 z m -2383.263,4821.0562 v -517.0672 l -923.288,-118.1841 q 127.347,-172.3589 227.409,-453.0485 100.063,-275.7723 100.063,-625.4073 0,-792.8492 -500.304,-1265.595 -500.304,-472.7458 -1373.564,-472.7458 -222.868,0 -418.442,39.3566 -482.112,-275.7724 -482.112,-694.3529 0,-221.5975 168.291,-329.9376 168.281,-103.4135 577.623,-103.4135 h 882.353 q 809.583,0 1241.667,-369.3419 436.626,-369.3323 436.626,-1073.5291 0,-896.253 -664.044,-1364.0817 -664.035,-472.74577 -1937.537,-472.74577 -977.864,0 -1510.011,393.95647 -527.597,393.9564 -527.597,1112.9333 0,492.4432 291.087,851.9316 291.087,359.4885 818.683,487.526 -191.024,93.5791 -322.921,290.543 -127.355,196.9734 -127.355,457.9752 0,295.4697 145.547,517.0672 145.539,221.5975 459.369,428.4244 -386.599,172.3589 -632.201,586.0127 -241.06,413.6633 -241.06,945.5011 0,886.4092 491.212,1364.0817 491.203,482.5992 1391.757,482.5992 391.14,0 704.97,-98.4962 z m -3975.145,-6303.322 q 0,-438.2778 341.113,-664.802 341.114,-226.5243 977.865,-226.5243 950.58,0 1405.408,310.2404 459.368,305.3136 459.368,832.2342 0,438.2779 -250.152,610.6368 -250.152,167.4322 -941.48,167.4322 h -905.103 q -513.946,0 -800.483,-265.9189 -286.536,-265.9285 -286.536,-763.2984 z m 409.341,4574.8347 q 0,-566.3153 295.629,-856.8583 295.637,-290.543 823.234,-290.543 1105.211,0 1105.211,1162.1815 0,1216.3372 -1118.862,1216.3372 -532.138,0 -818.675,-310.2403 -286.537,-310.2403 -286.537,-920.8771 z M 49742.74,5772.9707 q 0,-1319.7507 -614.017,-2063.3517 -614.008,-738.6647 -1696.485,-738.6647 -668.586,0 -1187.082,339.7816 -518.496,339.7911 -800.491,975.0519 -281.986,635.2513 -281.986,1487.1829 0,1319.7602 609.458,2053.5078 609.466,738.6743 1691.944,738.6743 1046.092,0 1660.101,-753.4449 618.558,-753.4449 618.558,-2038.7372 z m -3797.771,0 q 0,-1034.1344 382.057,-1575.8257 382.049,-541.6913 1123.404,-541.6913 741.364,0 1123.412,536.7646 386.599,541.6912 386.599,1580.7524 0,1029.2173 -386.599,1561.0646 -382.048,536.7646 -1132.504,536.7646 -741.364,0 -1118.862,-526.9207 -377.507,-526.9206 -377.507,-1570.9085 z m -2984.532,896.2626 1773.804,3599.7827 h 836.873 L 43351.584,5861.6135 V 3069.441 h -782.294 v 2752.7778 l -2214.983,4446.7972 h 845.968 z m -6340.219,-3599.7923 -150.091,768.2155 h -36.384 q -372.955,-507.2233 -745.908,-689.4261 -368.407,-177.2761 -923.289,-177.2761 -741.361,0 -1164.345,413.6538 -418.437,413.6537 -418.437,1176.9425 0,1634.9273 2415.106,1713.7167 l 845.969,29.5413 v 334.8643 q 0,635.2609 -254.701,935.6478 -250.151,305.3231 -805.035,305.3231 -623.106,0 -1409.948,-413.6633 l -231.959,625.4074 q 368.405,216.6803 805.035,339.7911 441.178,123.1108 882.355,123.1108 891.451,0 1318.984,-428.4244 432.08,-428.4339 432.08,-1373.9256 V 3069.4315 Z m -1705.582,576.1593 q 704.974,0 1105.217,418.5805 404.793,418.5804 404.793,1172.0253 v 487.526 l -755.005,-34.4966 q -900.548,-34.4965 -1300.792,-305.3136 -395.695,-265.9189 -395.695,-832.2342 0,-443.2046 245.604,-674.6555 250.152,-231.451 695.878,-231.451 z M 31248.77,3069.441 v 3491.4521 q 0,659.8754 -277.442,984.8958 -277.441,325.011 -868.71,325.011 -786.842,0 -1150.7,-462.9019 -359.309,-462.9019 -359.309,-1516.7337 V 3069.441 h -755.005 v 7662.477 h 755.005 V 8412.4912 q 0,-418.5805 -36.385,-694.3529 h 45.485 q 222.863,389.0393 632.203,610.6368 413.888,226.5242 941.482,226.5242 914.192,0 1369.015,-472.7458 459.369,-467.8286 459.369,-1492.1191 V 3069.441 Z m -5089.459,576.1593 q 200.121,0 386.599,29.5412 186.476,34.4966 295.633,68.9931 v -625.4169 q -122.801,-64.0378 -363.857,-103.4134 -236.507,-44.3119 -427.532,-44.3119 -1446.335,0 -1446.335,1649.6979 v 3210.753 h -714.071 v 393.9565 l 714.071,339.7911 318.375,1152.328 h 436.63 V 8466.6946 h 1446.334 v -635.2513 h -1446.334 v -3176.285 q 0,-487.526 213.766,-748.5182 213.766,-261.0017 586.721,-261.0017 z m -3724.994,-576.1593 -150.091,768.2155 h -36.385 q -372.954,-507.2233 -745.907,-689.4261 -368.406,-177.2761 -923.29,-177.2761 -741.36,0 -1164.344,413.6538 -418.437,413.6537 -418.437,1176.9425 0,1634.9273 2415.106,1713.7167 l 845.969,29.5413 v 334.8643 q 0,635.2609 -254.701,935.6478 -250.152,305.3231 -805.034,305.3231 -623.107,0 -1409.949,-413.6633 l -231.96,625.4074 q 368.406,216.6803 805.036,339.7911 441.178,123.1108 882.355,123.1108 891.451,0 1318.983,-428.4244 432.082,-428.4339 432.082,-1373.9256 V 3069.4315 Z m -1705.582,576.1593 q 704.974,0 1105.218,418.5805 404.791,418.5804 404.791,1172.0253 v 487.526 l -755.004,-34.4966 q -900.548,-34.4965 -1300.792,-305.3136 -395.695,-265.9189 -395.695,-832.2342 0,-443.2046 245.604,-674.6555 250.152,-231.451 695.878,-231.451 z M 18124.424,3069.441 h -773.198 V 6457.4797 H 13849.097 V 3069.441 h -773.198 v 7199.575 h 773.198 V 7205.9978 h 3502.129 v 3063.0182 h 773.198 z"
         id="path276" />
    </g>
  </g>
</svg>
